# xmcd
# 
# Track frame offsets:
#     150
#     15317
#     30935
#     44977
#     56055
#     70400
#     78162
#     95632
#     111650
#     125327
#     144760
#     157802
#     175435
#     191930
# 
# Disc length: 2893
# 
# Revision: 9
# Processed by: cddbd v1.5.2PL0 Copyright (c) Steve Scherf et al.
# Submitted via: fre:ac v1.0.17
# 
DISCID=c00b4b0e
DTITLE=Alison Krauss and Union Station - So Long So Wrong
DYEAR=1997
DGENRE=Country
TTITLE0=So Long, So wrong
TTITLE1=No Place To Hide
TTITLE2=Deeper Than Crying
TTITLE3=I Can Let Go Now
TTITLE4=The Road Is A Lover
TTITLE5=Little Liza Jane
TTITLE6=It Doesn't Matter
TTITLE7=Find My Way Back To My Heart
TTITLE8=I'll Remember You, Love, In My Prayers
TTITLE9=Looking In The Eyes Of Love
TTITLE10=Pain Of A Troubled Life
TTITLE11=Happiness
TTITLE12=Blue Trail Of Sorrow
TTITLE13=There Is A Reason
EXTD=
EXTT0=
EXTT1=
EXTT2=
EXTT3=
EXTT4=
EXTT5=
EXTT6=
EXTT7=
EXTT8=
EXTT9=
EXTT10=
EXTT11=
EXTT12=
EXTT13=
PLAYORDER=
